<svg xmlns="http://www.w3.org/2000/svg" width="160" height="120" viewBox="0 0 160 120">
  <ellipse cx="80" cy="114" rx="58" ry="7" fill="#020608" opacity="0.55"/>
  <rect x="18" y="60" width="124" height="52" fill="#5a3010" rx="3"/>
  <line x1="18" y1="74" x2="142" y2="74" stroke="#3a1e08" stroke-width="1.5" opacity="0.5"/>
  <line x1="18" y1="88" x2="142" y2="88" stroke="#3a1e08" stroke-width="1.5" opacity="0.5"/>
  <line x1="18" y1="102" x2="142" y2="102" stroke="#3a1e08" stroke-width="1.5" opacity="0.5"/>
  <rect x="18" y="82" width="124" height="7" fill="#a07820" opacity="0.7"/>
  <rect x="14" y="58" width="12" height="56" fill="none" stroke="#c8a020" stroke-width="2" rx="2"/>
  <rect x="134" y="58" width="12" height="56" fill="none" stroke="#c8a020" stroke-width="2" rx="2"/>
  <path d="M 18,60 C 18,16 142,16 142,60 Z" fill="#6a3c14"/>
  <path d="M 24,50 Q 80,34 136,50" fill="none" stroke="#3a1e08" stroke-width="1.5" opacity="0.5"/>
  <path d="M 22,57 Q 80,44 138,57" fill="none" stroke="#3a1e08" stroke-width="1.5" opacity="0.45"/>
  <path d="M 18,60 C 18,16 142,16 142,60" fill="none" stroke="#c8a020" stroke-width="3"/>
  <ellipse cx="80" cy="66" rx="50" ry="12" fill="#f0a000" opacity="0.6"/>
  <ellipse cx="80" cy="66" rx="38" ry="9" fill="#f8c800" opacity="0.75"/>
  <ellipse cx="56" cy="66" rx="11" ry="4.5" fill="#f0c040" stroke="#c89020" stroke-width="0.8"/>
  <ellipse cx="80" cy="63" rx="13" ry="5.5" fill="#f8d060" stroke="#c89020" stroke-width="0.8"/>
  <ellipse cx="104" cy="66" rx="11" ry="4.5" fill="#f0c040" stroke="#c89020" stroke-width="0.8"/>
  <polygon points="80,26 87,33 80,40 73,33" fill="#cc0040" stroke="#ff4466" stroke-width="1.5"/>
  <ellipse cx="78" cy="31" rx="2" ry="1.5" fill="#ff88aa" opacity="0.7"/>
  <rect x="14" y="57" width="10" height="9" fill="#c8a020" rx="1.5"/>
  <rect x="136" y="57" width="10" height="9" fill="#c8a020" rx="1.5"/>
  <rect x="72" y="58" width="16" height="7" fill="#c8a020" rx="2"/>
  <circle cx="80" cy="61" r="2.5" fill="#f0e040"/>
  <ellipse cx="30" cy="112" rx="9" ry="4" fill="#f0c040" stroke="#c89020" stroke-width="0.7" transform="rotate(-12,30,112)"/>
  <ellipse cx="132" cy="110" rx="9" ry="4" fill="#f0c040" stroke="#c89020" stroke-width="0.7" transform="rotate(15,132,110)"/>
  <ellipse cx="50" cy="113" rx="7" ry="3" fill="#e8b830" stroke="#c89020" stroke-width="0.7" transform="rotate(-5,50,113)"/>
  <ellipse cx="114" cy="112" rx="7" ry="3" fill="#e8b830" stroke="#c89020" stroke-width="0.7" transform="rotate(8,114,112)"/>
  <line x1="80" y1="8" x2="80" y2="0" stroke="#f8d060" stroke-width="2" stroke-linecap="round"/>
  <line x1="73" y1="10" x2="68" y2="4" stroke="#f8d060" stroke-width="1.5" stroke-linecap="round"/>
  <line x1="87" y1="10" x2="92" y2="4" stroke="#f8d060" stroke-width="1.5" stroke-linecap="round"/>
  <line x1="68" y1="14" x2="64" y2="10" stroke="#f8d060" stroke-width="1" stroke-linecap="round"/>
  <line x1="92" y1="14" x2="96" y2="10" stroke="#f8d060" stroke-width="1" stroke-linecap="round"/>
</svg>